<?xml version="1.0" encoding="UTF-8"?>
<svg width="18px" height="18px" viewBox="0 0 18 18" version="1.1" xmlns="http://www.w3.org/2000/svg" xmlns:xlink="http://www.w3.org/1999/xlink">
    <!-- Generator: sketchtool 64 (101010) - https://sketch.com -->
    <title>EDB51CA0-3F09-4F7E-A73E-C18A7C88265E@1.00x</title>
    <desc>Created with sketchtool.</desc>
    <g id="Icons-generiek" stroke="none" stroke-width="1" fill="none" fill-rule="evenodd">
        <g id="Icons-Generiek" transform="translate(-954.000000, -350.000000)" fill="#00778A">
            <g id="Icons" transform="translate(447.000000, 251.000000)">
                <g id="icon/ui/social/instagram" transform="translate(504.000000, 96.000000)">
                    <path d="M8,3 C5.239,3 3,5.239 3,8 L3,16 C3,18.761 5.239,21 8,21 L16,21 C18.761,21 21,18.761 21,16 L21,8 C21,5.239 18.761,3 16,3 L8,3 Z M18,5 C18.552,5 19,5.448 19,6 C19,6.552 18.552,7 18,7 C17.448,7 17,6.552 17,6 C17,5.448 17.448,5 18,5 Z M12,7 C14.761,7 17,9.239 17,12 C17,14.761 14.761,17 12,17 C9.239,17 7,14.761 7,12 C7,9.239 9.239,7 12,7 Z M12,9 C10.3431458,9 9,10.3431458 9,12 C9,13.6568542 10.3431458,15 12,15 C13.6568542,15 15,13.6568542 15,12 C15,10.3431458 13.6568542,9 12,9 Z" id="Shape"></path>
                </g>
            </g>
        </g>
    </g>
</svg>