<?xml version="1.0" encoding="UTF-8"?>
<svg width="16px" height="16px" viewBox="0 0 16 16" version="1.1" xmlns="http://www.w3.org/2000/svg" xmlns:xlink="http://www.w3.org/1999/xlink">
    <!-- Generator: sketchtool 64 (101010) - https://sketch.com -->
    <title>E14289AE-A6CA-4799-AF05-44202993A70D@1.00x</title>
    <desc>Created with sketchtool.</desc>
    <g id="Icons-generiek" stroke="none" stroke-width="1" fill="none" fill-rule="evenodd">
        <g id="Icons-Generiek" transform="translate(-447.000000, -383.000000)" fill="#00778A">
            <g id="Icons" transform="translate(447.000000, 251.000000)">
                <g id="icon/ui/home" transform="translate(0.000000, 132.000000)">
                    <g id="Group-6-Copy">
                        <path d="M7.25340425,0.244966882 C7.59817246,-0.0544370848 8.09674595,-0.0793874153 8.46714837,0.17011589 L8.56477756,0.244966882 L15.4738685,6.24496688 C15.8908618,6.60709262 15.9353407,7.23869338 15.5732149,7.65568666 C15.238945,8.04060353 14.6750633,8.10811172 14.2623136,7.83139828 L14.1624952,7.75503312 L7.909,2.324 L1.65568666,7.75503312 C1.27076978,8.08930303 0.702992102,8.0771169 0.333097602,7.74528768 L0.244966882,7.65568666 C-0.0893030327,7.27076978 -0.0771168993,6.7029921 0.254712324,6.3330976 L0.344313345,6.24496688 L7.25340425,0.244966882 Z" id="Line"></path>
                        <path d="M2.40909091,5.5 C2.92192675,5.5 3.34459807,5.88604019 3.40236318,6.38337887 L3.40909091,6.5 L3.40909091,14.5 C3.40909091,15.0522847 2.96137566,15.5 2.40909091,15.5 C1.89625507,15.5 1.47358375,15.1139598 1.41581864,14.6166211 L1.40909091,14.5 L1.40909091,6.5 C1.40909091,5.94771525 1.85680616,5.5 2.40909091,5.5 Z" id="Line-6"></path>
                        <path d="M13.4090909,5.5 C13.9219267,5.5 14.3445981,5.88604019 14.4023632,6.38337887 L14.4090909,6.5 L14.4090909,14.5 C14.4090909,15.0522847 13.9613757,15.5 13.4090909,15.5 C12.8962551,15.5 12.4735837,15.1139598 12.4158186,14.6166211 L12.4090909,14.5 L12.4090909,6.5 C12.4090909,5.94771525 12.8568062,5.5 13.4090909,5.5 Z" id="Line-6-Copy"></path>
                        <path d="M13.4090909,14 C13.9613757,14 14.4090909,14.4477153 14.4090909,15 C14.4090909,15.5128358 14.0230507,15.9355072 13.525712,15.9932723 L13.4090909,16 L2.40909091,16 C1.85680616,16 1.40909091,15.5522847 1.40909091,15 C1.40909091,14.4871642 1.7951311,14.0644928 2.29246978,14.0067277 L2.40909091,14 L13.4090909,14 Z" id="Line-6"></path>
                    </g>
                </g>
            </g>
        </g>
    </g>
</svg>