<?xml version="1.0" encoding="UTF-8"?>
<svg width="16px" height="14px" viewBox="0 0 16 14" version="1.1" xmlns="http://www.w3.org/2000/svg" xmlns:xlink="http://www.w3.org/1999/xlink">
    <!-- Generator: sketchtool 64 (101010) - https://sketch.com -->
    <title>21549D17-5B52-409F-AA51-1261EBF5EE3E@1.00x</title>
    <desc>Created with sketchtool.</desc>
    <g id="Icons-generiek" stroke="none" stroke-width="1" fill="none" fill-rule="evenodd">
        <g id="Icons-Generiek" transform="translate(-447.000000, -344.000000)" fill="#00778A">
            <g id="Icons" transform="translate(447.000000, 251.000000)">
                <g id="icon/ui/dowload" transform="translate(0.000000, 92.000000)">
                    <g id="Group-3-Copy" transform="translate(0.500000, 1.000000)">
                        <path d="M11.3409903,7.59099026 C11.893275,7.59099026 12.3409903,8.03870551 12.3409903,8.59099026 C12.3409903,9.1038261 11.9549501,9.52649742 11.4576114,9.58426253 L11.3409903,9.59099026 L6.84099026,9.59099026 C6.28870551,9.59099026 5.84099026,9.14327501 5.84099026,8.59099026 C5.84099026,8.07815442 6.22703045,7.6554831 6.72436913,7.59771799 L6.84099026,7.59099026 L11.3409903,7.59099026 Z" id="Line-Copy" transform="translate(9.090990, 8.590990) rotate(-225.000000) translate(-9.090990, -8.590990) "></path>
                        <path d="M5.90900974,5.34099026 C6.42184558,5.34099026 6.8445169,5.72703045 6.90228201,6.22436913 L6.90900974,6.34099026 L6.90900974,10.8409903 C6.90900974,11.393275 6.46129449,11.8409903 5.90900974,11.8409903 C5.3961739,11.8409903 4.97350258,11.4549501 4.91573747,10.9576114 L4.90900974,10.8409903 L4.90900974,6.34099026 C4.90900974,5.78870551 5.35672499,5.34099026 5.90900974,5.34099026 Z" id="Line-Copy-2" transform="translate(5.909010, 8.590990) rotate(-225.000000) translate(-5.909010, -8.590990) "></path>
                        <path d="M7.5,0.292893264 C8.01283584,0.292893264 8.43550716,0.678933454 8.49327227,1.17627214 L8.5,1.29289326 L8.5,8.29289326 C8.5,8.84517801 8.05228475,9.29289326 7.5,9.29289326 C6.98716416,9.29289326 6.56449284,8.90685307 6.50672773,8.40951439 L6.5,8.29289326 L6.5,1.29289326 C6.5,0.740608514 6.94771525,0.292893264 7.5,0.292893264 Z" id="Line-3"></path>
                        <path d="M14,12 C14.5522847,12 15,12.4477153 15,13 C15,13.5128358 14.6139598,13.9355072 14.1166211,13.9932723 L14,14 L1,14 C0.44771525,14 0,13.5522847 0,13 C0,12.4871642 0.38604019,12.0644928 0.883378875,12.0067277 L1,12 L14,12 Z" id="Rectangle"></path>
                    </g>
                </g>
            </g>
        </g>
    </g>
</svg>