<?xml version="1.0" encoding="UTF-8"?>
<svg width="22px" height="16px" viewBox="0 0 22 16" version="1.1" xmlns="http://www.w3.org/2000/svg" xmlns:xlink="http://www.w3.org/1999/xlink">
    <!-- Generator: sketchtool 64 (101010) - https://sketch.com -->
    <title>6EABA112-60EA-47FA-BCDD-C943FAC4F2F8@1.00x</title>
    <desc>Created with sketchtool.</desc>
    <g id="Icons-generiek" stroke="none" stroke-width="1" fill="none" fill-rule="evenodd">
        <g id="Icons-Generiek" transform="translate(-952.000000, -447.000000)" fill="#00778A">
            <g id="Icons" transform="translate(447.000000, 251.000000)">
                <g id="icon/ui/social/twitter" transform="translate(504.000000, 192.000000)">
                    <path d="M20.74775,7.9855418 C20.756,8.15904022 20.7615,8.33253864 20.7615,8.50849804 C20.7615,13.8451127 16.22125,20 7.919,20 C5.36975,20 2.997875,19.3318465 1,18.1862647 C1.353375,18.2231793 1.71225,18.2416365 2.076625,18.2416365 C4.191375,18.2416365 6.137,17.5968623 7.6825,16.5128047 C5.706625,16.4808121 4.040125,15.3130816 3.465375,13.7085288 C3.74175,13.7552872 4.023625,13.7798969 4.315125,13.7798969 C4.72625,13.7798969 5.125,13.7306775 5.5045,13.6383911 C3.43925,13.2680151 1.884125,11.6351611 1.884125,9.67868953 L1.884125,9.62700915 C2.491875,9.92970853 3.189,10.1118203 3.92875,10.1327386 C2.717375,9.40798277 1.919875,8.17134507 1.919875,6.77105283 C1.919875,6.0303007 2.142625,5.33630701 2.53175,4.73952165 C4.757875,7.1832654 8.084,8.79150965 11.835,8.96008613 C11.758,8.66476967 11.718125,8.35591787 11.718125,8.03968315 C11.718125,5.80881335 13.739375,4 16.230875,4 C17.53025,4 18.703125,4.49096362 19.525375,5.27601323 C20.553875,5.09513189 21.5205,4.75920941 22.39225,4.29654695 C22.055375,5.23909867 21.339,6.0303007 20.408125,6.53110821 C21.321125,6.43266938 22.190125,6.21610398 23,5.89494732 C22.395,6.70460663 21.629125,7.41582712 20.74775,7.9855418" id="Path"></path>
                </g>
            </g>
        </g>
    </g>
</svg>