<?xml version="1.0" encoding="UTF-8"?>
<svg width="10px" height="6px" viewBox="0 0 10 6" version="1.1" xmlns="http://www.w3.org/2000/svg" xmlns:xlink="http://www.w3.org/1999/xlink">
    <!-- Generator: sketchtool 64 (101010) - https://sketch.com -->
    <title>B2B92981-4523-4A55-96D7-6DDC25BC329D@1.00x</title>
    <desc>Created with sketchtool.</desc>
    <g id="Icons-generiek" stroke="none" stroke-width="1" fill="none" fill-rule="evenodd">
        <g id="Icons-Generiek" transform="translate(-450.000000, -308.000000)" fill="#00778A">
            <g id="Icons" transform="translate(447.000000, 251.000000)">
                <g id="icon/ui/chevron/blue" transform="translate(0.000000, 52.000000)">
                    <path d="M11.2928932,5.29289322 C11.6834175,4.90236893 12.3165825,4.90236893 12.7071068,5.29289322 C13.0675907,5.65337718 13.0953203,6.22060824 12.7902954,6.61289944 L12.7071068,6.70710678 L8.70710678,10.7071068 C8.31658249,11.0976311 7.68341751,11.0976311 7.29289322,10.7071068 C6.93240926,10.3466228 6.90467972,9.77939176 7.20970461,9.38710056 L7.29289322,9.29289322 L11.2928932,5.29289322 Z" id="Line-Copy"></path>
                    <path d="M3.29289322,5.29289322 C3.65337718,4.93240926 4.22060824,4.90467972 4.61289944,5.20970461 L4.70710678,5.29289322 L8.70710678,9.29289322 C9.09763107,9.68341751 9.09763107,10.3165825 8.70710678,10.7071068 C8.34662282,11.0675907 7.77939176,11.0953203 7.38710056,10.7902954 L7.29289322,10.7071068 L3.29289322,6.70710678 C2.90236893,6.31658249 2.90236893,5.68341751 3.29289322,5.29289322 Z" id="Line-Copy-2"></path>
                </g>
            </g>
        </g>
    </g>
</svg>