<?xml version="1.0" encoding="UTF-8"?>
<svg width="16px" height="14px" viewBox="0 0 16 14" version="1.1" xmlns="http://www.w3.org/2000/svg" xmlns:xlink="http://www.w3.org/1999/xlink">
    <!-- Generator: sketchtool 64 (101010) - https://sketch.com -->
    <title>852BD18C-FF48-4495-864E-96DE14CB254C@1.00x</title>
    <desc>Created with sketchtool.</desc>
    <g id="Icons-generiek" stroke="none" stroke-width="1" fill="none" fill-rule="evenodd">
        <g id="Icons-Generiek" transform="translate(-447.000000, -464.000000)" fill="#00778A">
            <g id="Icons" transform="translate(447.000000, 251.000000)">
                <g id="icon/ui/arrow/azure" transform="translate(0.000000, 212.000000)">
                    <g id="Group-5" transform="translate(0.000000, 1.000000)">
                        <path d="M9.61289944,0.209704612 L9.70710678,0.292893219 L15.7071068,6.29289322 C16.0675907,6.65337718 16.0953203,7.22060824 15.7902954,7.61289944 L15.7071068,7.70710678 L9.70710678,13.7071068 C9.31658249,14.0976311 8.68341751,14.0976311 8.29289322,13.7071068 C7.93240926,13.3466228 7.90467972,12.7793918 8.20970461,12.3871006 L8.29289322,12.2928932 L12.5845604,8 L1.43956044,8 C0.88727569,8 0.43956044,7.55228475 0.43956044,7 C0.43956044,6.48716416 0.82560063,6.06449284 1.32293931,6.00672773 L1.43956044,6 L12.5845604,6 L8.29289322,1.70710678 C7.93240926,1.34662282 7.90467972,0.779391764 8.20970461,0.387100557 L8.29289322,0.292893219 C8.65337718,-0.0675907428 9.22060824,-0.0953202783 9.61289944,0.209704612 Z" id="Combined-Shape"></path>
                    </g>
                </g>
            </g>
        </g>
    </g>
</svg>