<?xml version="1.0" encoding="UTF-8"?>
<svg width="18px" height="18px" viewBox="0 0 18 18" version="1.1" xmlns="http://www.w3.org/2000/svg" xmlns:xlink="http://www.w3.org/1999/xlink">
    <!-- Generator: sketchtool 64 (101010) - https://sketch.com -->
    <title>D9ED9674-0308-46E0-B53C-B8FBABBC236D@1.00x</title>
    <desc>Created with sketchtool.</desc>
    <g id="Icons-generiek" stroke="none" stroke-width="1" fill="none" fill-rule="evenodd">
        <g id="Icons-Generiek" transform="translate(-954.000000, -398.000000)" fill="#00778A">
            <g id="Icons" transform="translate(447.000000, 251.000000)">
                <g id="icon/ui/social/linkedin" transform="translate(504.000000, 144.000000)">
                    <path d="M19.7142857,3 L4.28169643,3 C3.57455357,3 3,3.58258929 3,4.29776786 L3,19.7022321 C3,20.4174107 3.57455357,21 4.28169643,21 L19.7142857,21 C20.4214286,21 21,20.4174107 21,19.7022321 L21,4.29776786 C21,3.58258929 20.4214286,3 19.7142857,3 Z M8.44017857,18.4285714 L5.77232143,18.4285714 L5.77232143,9.83839286 L8.44419643,9.83839286 L8.44419643,18.4285714 L8.44017857,18.4285714 Z M7.10625,8.66517857 C6.25044643,8.66517857 5.559375,7.97008929 5.559375,7.11830357 C5.559375,6.26651786 6.25044643,5.57142857 7.10625,5.57142857 C7.95803571,5.57142857 8.653125,6.26651786 8.653125,7.11830357 C8.653125,7.97410714 7.96205357,8.66517857 7.10625,8.66517857 L7.10625,8.66517857 Z M18.440625,18.4285714 L15.7727679,18.4285714 L15.7727679,14.25 C15.7727679,13.2535714 15.7526786,11.971875 14.3866071,11.971875 C12.9964286,11.971875 12.7834821,13.0566964 12.7834821,14.1776786 L12.7834821,18.4285714 L10.115625,18.4285714 L10.115625,9.83839286 L12.675,9.83839286 L12.675,11.0116071 L12.7111607,11.0116071 C13.06875,10.3366071 13.940625,9.62544643 15.2383929,9.62544643 C17.9383929,9.62544643 18.440625,11.4053571 18.440625,13.7196429 L18.440625,18.4285714 L18.440625,18.4285714 Z" id="Shape"></path>
                </g>
            </g>
        </g>
    </g>
</svg>