<?xml version="1.0" encoding="UTF-8"?>
<svg width="14px" height="14px" viewBox="0 0 14 14" version="1.1" xmlns="http://www.w3.org/2000/svg" xmlns:xlink="http://www.w3.org/1999/xlink">
    <!-- Generator: sketchtool 64 (101010) - https://sketch.com -->
    <title>807195BF-626E-4CC8-A691-F116B5ABFFBB@1.00x</title>
    <desc>Created with sketchtool.</desc>
    <g id="Icons-generiek" stroke="none" stroke-width="1" fill="none" fill-rule="evenodd">
        <g id="Icons-Generiek" transform="translate(-448.000000, -424.000000)" fill="#00778A">
            <g id="Icons" transform="translate(447.000000, 251.000000)">
                <g id="icon/ui/link-external-copy-2" transform="translate(0.000000, 172.000000)">
                    <g id="Group-Copy" transform="translate(1.000000, 0.500000)">
                        <path d="M12.0857865,0.999999955 C12.4763108,0.609475663 13.1094758,0.609475663 13.5,0.999999955 C13.860484,1.36048392 13.8882135,1.92771497 13.5831887,2.32000618 L13.5,2.41421352 L7.20710678,8.70710674 C6.81658249,9.09763107 6.18341751,9.09763107 5.79289322,8.70710674 C5.43240926,8.34662282 5.40467972,7.77939176 5.70970461,7.38710056 L5.79289322,7.29289322 L12.0857865,0.999999955 Z" id="Line-3"></path>
                        <path d="M4.49565217,0.5 C5.04793692,0.5 5.49565217,0.94771525 5.49565217,1.5 C5.49565217,2.01283584 5.10961198,2.43550716 4.6122733,2.49327227 L4.49565217,2.5 L3,2.5 C2.48716416,2.5 2.06449284,2.88604019 2.00672773,3.38337887 L2,3.5 L2,11.5 C2,12.0128358 2.38604019,12.4355072 2.88337887,12.4932723 L3,12.5 L11,12.5 C11.5128358,12.5 11.9355072,12.1139598 11.9932723,11.6166211 L12,11.5 L12,10.0043478 C12,9.45206308 12.4477153,9.00434783 13,9.00434783 C13.5128358,9.00434783 13.9355072,9.39038802 13.9932723,9.8877267 L14,10.0043478 L14,11.5 C14,13.0976809 12.75108,14.4036609 11.1762728,14.4949073 L11,14.5 L3,14.5 C1.40231912,14.5 0.0963391206,13.25108 0.00509269341,11.6762728 L0,11.5 L0,3.5 C0,1.90231912 1.24891996,0.596339121 2.82372721,0.505092693 L3,0.5 L4.49565217,0.5 Z" id="Rectangle"></path>
                        <path d="M13,0.5 C13.5522847,0.5 14,0.94771525 14,1.5 C14,2.01283584 13.6139598,2.43550716 13.1166211,2.49327227 L13,2.5 L9,2.5 C8.44771525,2.5 8,2.05228475 8,1.5 C8,0.987164161 8.38604019,0.564492839 8.88337887,0.506727731 L9,0.5 L13,0.5 Z" id="Line-Copy"></path>
                        <path d="M13,0.5 C13.5128358,0.5 13.9355072,0.88604019 13.9932723,1.38337887 L14,1.5 L14,5.5 C14,6.05228475 13.5522847,6.5 13,6.5 C12.4871642,6.5 12.0644928,6.11395981 12.0067277,5.61662113 L12,5.5 L12,1.5 C12,0.94771525 12.4477153,0.5 13,0.5 Z" id="Line-Copy-2"></path>
                    </g>
                </g>
            </g>
        </g>
    </g>
</svg>