<?xml version="1.0" encoding="UTF-8"?>
<svg width="18px" height="18px" viewBox="0 0 18 18" version="1.1" xmlns="http://www.w3.org/2000/svg" xmlns:xlink="http://www.w3.org/1999/xlink">
    <!-- Generator: sketchtool 64 (101010) - https://sketch.com -->
    <title>73ECFCF6-C198-485C-9BBF-3C52F1C9510B@1.00x</title>
    <desc>Created with sketchtool.</desc>
    <g id="Icons-generiek" stroke="none" stroke-width="1" fill="none" fill-rule="evenodd">
        <g id="Icons-Generiek" transform="translate(-954.000000, -302.000000)" fill="#00778A">
            <g id="Icons" transform="translate(447.000000, 251.000000)">
                <g id="icon/ui/social/facebook" transform="translate(504.000000, 48.000000)">
                    <path d="M21,3 L21,21 L16.0414972,21 L16.0414972,13.610775 L18.6952461,13.610775 L19.0927669,10.7302125 L16.0414972,10.7302125 L16.0414972,8.8915125 C16.0414972,8.058225 16.2895415,7.4902125 17.5687568,7.4902125 L17.5687568,7.4902125 L19.2,7.4892 L19.2,4.9134 C18.9172945,4.8779625 17.9489469,4.8 16.8224576,4.8 C14.4709111,4.8 12.8602479,6.1415625 12.8602479,8.607 L12.8602479,8.607 L12.8602479,10.7302125 L10.2,10.7302125 L10.2,13.610775 L12.8602479,13.610775 L12.8602479,21 L3,21 L3,3 L21,3 Z" id="Combined-Shape"></path>
                </g>
            </g>
        </g>
    </g>
</svg>